<svg xmlns="http://www.w3.org/2000/svg" viewBox="0 0 196.674 137.623" role="img" aria-label="Copilot Monitor">
  <path fill="#25aff3" d="M44.392 112.032c-2.469.043-4.512-.018-4.854-.183C17.407 109.993 0 91.419 0 68.812c0-23.838 19.353-43.191 43.19-43.191 3.297 0 6.508.37 9.591 1.071C61.729 10.769 78.785 0 98.337 0c16.373 0 30.995 7.551 40.572 19.357-.032.006-11.452-1.496-26.624 14.932-11.05 11.964-23.594 29.606-37.352 42.06-10.616 9.609-22.048 16.114-33.902 16.114 26.51-6.901 41.661-41.846 62.746-66.032 4.086-4.687 8.281-8.334 12.11-10.87-5.313-2.552-11.266-3.98-17.55-3.98-7.487 0-14.505 2.027-20.53 5.567-6.223 3.656-11.39 8.919-14.929 15.218l-4.234 7.535-8.429-1.915-7.025-.783c-8.722 0-16.623 3.542-22.345 9.264-5.721 5.721-9.264 13.622-9.264 22.345 0 8.722 3.543 16.623 9.264 22.344 5.722 5.722 13.623 9.264 22.345 9.264 0 0 16.63.276 33.958-13.135 15.318-11.855 28.109-28.676 40.951-41.424 5.112-5.075 17.51-22.672 43.55-19.467 20.15 2.48 35.025 21.371 35.025 42.418 0 23.837-19.353 43.19-43.19 43.19-3.297 0-6.508-.37-9.591-1.071-8.948 15.923-26.004 26.692-45.556 26.692-16.52 0-31.258-7.688-40.828-19.676 10.433 1.785 24.911-3.861 35.335-13.561.506-.47.983-.94 1.431-1.408.422-.369.843-.745 1.263-1.125 13.505-12.225 25.769-29.588 36.616-41.332 4.922-5.329 9.631-9.567 14.005-12.034 3.329-1.878 9.63-2.815 9.63-2.815-19.311 8.608-22.828 36.467-52.479 64.767-6.049 5.774-12.677 10.165-19.355 12.981 4.471 1.695 9.319 2.622 14.382 2.622 7.487 0 14.505-2.027 20.53-5.567 6.223-3.656 11.39-8.919 14.929-15.218l4.234-7.535 15.454 2.698c8.722 0 16.623-3.542 22.345-9.264 5.721-5.721 9.264-13.622 9.264-22.344 0-8.723-3.543-16.624-9.264-22.345-5.266-5.266-12.379-8.687-20.278-9.198-10.671.097-19.867 7.454-29.293 16.811-13.155 13.059-26.33 30.22-42.022 42.364-3.186 2.466-6.473 4.73-9.878 6.73-8.903 5.115-16.162 7.325-21.301 8.241l-.01-.017c-1.665.315-4.589.515-7.296.6-.876-.039-1.331-.116-1.331-.116l-.028.15Z"/>
</svg>